<?xml version="1.0" encoding="utf-8"?>
<!-- Generator: Adobe Illustrator 17.0.2, SVG Export Plug-In . SVG Version: 6.00 Build 0)  -->
<!DOCTYPE svg PUBLIC "-//W3C//DTD SVG 1.1//EN" "http://www.w3.org/Graphics/SVG/1.1/DTD/svg11.dtd">
<svg version="1.1" id="Layer_1" xmlns="http://www.w3.org/2000/svg" xmlns:xlink="http://www.w3.org/1999/xlink" x="0px" y="0px"
	 width="248.543px" height="116px" viewBox="0 0 248.543 116" enable-background="new 0 0 248.543 116" xml:space="preserve">
<g>
	<g>
		<path fill="#AF0000" d="M278.1,49.669c0-6.669,2.093-12.963,6.281-18.881c4.187-5.917,9.49-8.876,15.91-8.876
			c1.253,0,2.582-0.05,3.987-0.151l2.859-0.621l-3.536,22.731c-0.451,2.861-0.778,4.968-0.978,6.322
			c-0.201,1.355-0.301,2.333-0.301,2.935c0,1.355,0.426,2.032,1.279,2.032c0.752,0,1.855-0.376,3.31-1.129v1.279
			c-1.805,1.354-3.285,2.294-4.438,2.821c-1.154,0.526-2.182,0.79-3.084,0.79c-1.254,0-2.082-0.366-2.482-1.094
			c-0.402-0.729-0.602-1.824-0.602-3.284c0-0.938,0.2-2.891,0.602-5.863c0.401-2.971,0.777-5.526,1.128-7.662
			c-2.307,5.108-4.589,9.369-6.845,12.782c-2.257,3.414-4.915,5.121-7.974,5.121c-1.906,0-3.235-0.916-3.987-2.746
			C278.476,54.346,278.1,52.177,278.1,49.669z M300.743,25.672c-0.752-0.3-1.881-0.451-3.385-0.451c-3.862,0-6.958,2.922-9.29,8.763
			c-2.332,5.843-3.498,10.971-3.498,15.383c0,1.455,0.138,2.633,0.414,3.536c0.275,0.902,0.914,1.354,1.918,1.354
			c2.005,0,4.814-3.711,8.425-11.133C298.938,35.702,300.743,29.885,300.743,25.672z"/>
		<path fill="#AF0000" d="M319.097,25.296l-3.912,0.677l0.3-1.542l10.802-2.544l-3.572,19.722c2.617-5.464,5.146-9.987,7.587-13.57
			c2.44-3.583,5.246-5.376,8.417-5.376c1.157,0,1.999,0.339,2.528,1.016c0.529,0.677,0.793,1.617,0.793,2.82
			c0,1.154-0.192,2.796-0.574,4.926c-0.382,2.131-0.649,3.622-0.801,4.475l-1.527,8.873c1.206-2.907,2.713-6.028,4.523-9.362
			c1.809-3.333,3.882-6.291,6.219-8.874c2.337-2.581,4.66-3.873,6.973-3.873c1.054,0,1.832,0.389,2.336,1.166
			c0.503,0.778,0.754,1.743,0.754,2.896c0,1.154-0.075,2.32-0.226,3.498c-0.15,1.178-0.376,2.595-0.677,4.25l-2.858,14.518
			c-0.051,0.251-0.201,1.028-0.452,2.332c-0.251,1.305-0.376,2.332-0.376,3.084c0,0.352,0.162,0.64,0.489,0.865
			c0.326,0.225,0.689,0.338,1.091,0.338c0.602,0,1.241-0.162,1.918-0.489c0.677-0.326,1.19-0.564,1.542-0.715l0.677,0.903
			c-1.354,1.003-2.809,1.856-4.363,2.557c-1.555,0.702-3.035,1.053-4.438,1.053c-1.053,0-1.881-0.302-2.482-0.904
			c-0.602-0.602-0.903-1.406-0.903-2.411c0-0.853,0.153-2.195,0.458-4.029c0.305-1.832,0.554-3.276,0.742-4.331l1.776-9.018
			c0.257-1.253,0.515-2.568,0.773-3.946c0.259-1.377,0.388-2.342,0.388-2.894c0-0.753-0.075-1.315-0.226-1.691
			c-0.151-0.376-0.526-0.564-1.129-0.564c-1.305,0-3.511,2.909-6.62,8.726c-3.11,5.818-6.069,12.438-8.877,19.859l-4.664,0.452
			l2.934-18.957c0.752-4.914,1.128-8.049,1.128-9.403c0-1.054-0.376-1.58-1.128-1.58c-2.257,0-5.103,3.9-8.538,11.697
			c-3.434,7.799-5.528,13.729-6.28,17.791l-5.341,0.452L319.097,25.296z"/>
	</g>
	<path fill="#AF0000" d="M380.789,1.852l-14.94,96.334l96.334,14.94l14.94-96.334L380.789,1.852z M415.545,95.797
		c-21.124-3.276-35.643-23.126-32.367-44.25c3.276-21.123,23.126-35.643,44.25-32.367l0,0l-1.593,10.274l0,0
		c-15.458-2.397-29.985,8.228-32.382,23.686c-2.397,15.458,8.229,29.985,23.687,32.382c15.458,2.397,29.985-8.229,32.382-23.687
		l10.274,1.593C456.519,84.553,436.668,99.073,415.545,95.797z"/>
</g>
<g>
	<g>
		<path fill="#FF0000" d="M-261.87,4.758h23.622v88.646h-23.622V4.758z"/>
		<path fill="#FF0000" d="M-220.595,4.758h32.258c30.86,0,52.45,9.652,52.45,43.941c0,33.147-22.225,44.704-52.45,44.704h-32.258
			V4.758z M-196.973,75.878h9.144c17.653,0,27.559-9.145,27.559-26.797c0-17.653-10.286-26.797-27.559-26.797h-9.144V75.878z"/>
		<path fill="#FF0000" d="M-121.536,71.56c6.096,3.302,14.605,5.842,24.384,5.842c7.493,0,14.605-1.523,14.605-8.636
			c0-16.51-41.91-6.096-41.91-38.354c0-21.336,20.828-27.178,38.607-27.178c8.509,0,16.892,1.27,22.86,3.302l-1.524,18.288
			c-6.096-2.794-12.954-4.064-19.685-4.064c-5.969,0-15.875,0.508-15.875,8.255c0,14.352,41.91,4.699,41.91,36.703
			c0,22.986-19.305,29.21-38.989,29.21c-8.255,0-18.542-1.271-26.416-3.811L-121.536,71.56z"/>
		<polygon fill="#FF0000" points="-306.447,4.758 -321.179,4.758 -321.179,23.046 -320.925,23.046 -310.384,57.717 -321.179,57.717 
			-321.179,74.481 -304.796,74.481 -298.192,93.404 -272.285,93.404 		"/>
	</g>
	<g>
		<path d="M-537.967,71.56c6.096,3.302,14.605,5.842,24.384,5.842c7.493,0,14.605-1.523,14.605-8.636
			c0-16.51-41.91-6.096-41.91-38.354c0-21.336,20.828-27.178,38.608-27.178c8.509,0,16.891,1.27,22.86,3.302l-1.524,18.288
			c-6.096-2.794-12.954-4.064-19.685-4.064c-5.969,0-15.875,0.508-15.875,8.255c0,14.352,41.91,4.699,41.91,36.703
			c0,22.986-19.304,29.21-38.989,29.21c-8.255,0-18.542-1.271-26.416-3.811L-537.967,71.56z"/>
		<path d="M-417.477,3.235c29.21,0,44.45,17.398,44.45,45.847c0,28.193-15.494,45.847-44.45,45.847
			c-28.956,0-44.449-17.653-44.449-45.847C-461.927,20.633-446.687,3.235-417.477,3.235z M-417.477,77.402
			c14.351,0,20.066-13.716,20.066-28.32c0-15.367-5.715-28.321-20.066-28.321c-14.351,0-20.065,12.954-20.065,28.321
			C-437.543,63.686-431.828,77.402-417.477,77.402z"/>
		<polygon points="-321.179,57.717 -332.609,57.717 -321.179,23.046 -321.179,4.758 -335.403,4.758 -369.057,93.404 
			-345.055,93.404 -338.07,74.481 -321.179,74.481 		"/>
	</g>
</g>
<g>
	<g>
		<path d="M74.985,17.027v12.845c-0.638,0.393-1.362,0.736-2.172,1.031c-0.81,0.294-1.651,0.546-2.521,0.754
			c-0.871,0.208-1.755,0.362-2.65,0.46c-0.896,0.098-1.736,0.147-2.521,0.147c-2.208,0-4.177-0.368-5.907-1.104
			c-1.73-0.736-3.19-1.73-4.38-2.981c-1.191-1.251-2.098-2.705-2.724-4.361c-0.626-1.656-0.939-3.405-0.939-5.245
			c0-1.938,0.337-3.742,1.012-5.41c0.675-1.668,1.607-3.116,2.797-4.343c1.19-1.227,2.619-2.19,4.288-2.889
			c1.668-0.699,3.497-1.049,5.484-1.049c2.405,0,4.367,0.301,5.889,0.902c1.521,0.602,2.797,1.43,3.828,2.485l-2.503,2.687
			c-1.08-1.031-2.221-1.748-3.423-2.153c-1.203-0.405-2.466-0.607-3.791-0.607c-1.497,0-2.847,0.276-4.049,0.828
			c-1.203,0.552-2.233,1.295-3.092,2.227c-0.859,0.933-1.522,2.031-1.988,3.294c-0.466,1.264-0.699,2.607-0.699,4.03
			c0,1.472,0.258,2.84,0.773,4.104c0.515,1.264,1.227,2.362,2.135,3.294c0.907,0.933,1.975,1.663,3.202,2.19
			c1.227,0.528,2.564,0.791,4.012,0.791c1.251,0,2.435-0.116,3.552-0.35c1.116-0.233,2.067-0.571,2.852-1.012V20.34h-5.779v-3.313
			H74.985z"/>
		<path d="M103.657,17.027v12.845c-0.638,0.393-1.362,0.736-2.172,1.031c-0.81,0.294-1.651,0.546-2.521,0.754
			c-0.871,0.208-1.755,0.362-2.65,0.46c-0.896,0.098-1.736,0.147-2.521,0.147c-2.208,0-4.177-0.368-5.907-1.104
			c-1.73-0.736-3.19-1.73-4.38-2.981c-1.191-1.251-2.098-2.705-2.724-4.361c-0.626-1.656-0.939-3.405-0.939-5.245
			c0-1.938,0.337-3.742,1.012-5.41c0.675-1.668,1.607-3.116,2.797-4.343c1.19-1.227,2.619-2.19,4.288-2.889
			c1.668-0.699,3.497-1.049,5.484-1.049c2.405,0,4.367,0.301,5.889,0.902c1.521,0.602,2.797,1.43,3.828,2.485l-2.503,2.687
			c-1.08-1.031-2.221-1.748-3.423-2.153c-1.203-0.405-2.466-0.607-3.791-0.607c-1.497,0-2.847,0.276-4.049,0.828
			c-1.203,0.552-2.233,1.295-3.092,2.227c-0.859,0.933-1.522,2.031-1.988,3.294c-0.466,1.264-0.699,2.607-0.699,4.03
			c0,1.472,0.258,2.84,0.773,4.104c0.515,1.264,1.227,2.362,2.135,3.294c0.907,0.933,1.975,1.663,3.202,2.19
			c1.227,0.528,2.564,0.791,4.012,0.791c1.251,0,2.435-0.116,3.552-0.35c1.116-0.233,2.067-0.571,2.852-1.012V20.34h-5.779v-3.313
			H103.657z"/>
		<path d="M109.546,5.544h9.091c1.84,0,3.453,0.209,4.84,0.626c1.386,0.417,2.588,0.975,3.607,1.675
			c1.018,0.699,1.864,1.503,2.54,2.411c0.674,0.908,1.208,1.84,1.601,2.797c0.392,0.957,0.675,1.914,0.847,2.871
			c0.171,0.957,0.258,1.84,0.258,2.65c0,1.669-0.307,3.282-0.92,4.84c-0.614,1.559-1.522,2.945-2.724,4.159
			c-1.203,1.215-2.693,2.19-4.472,2.926c-1.779,0.736-3.834,1.104-6.165,1.104h-8.502V5.544z M113.079,28.29h4.454
			c1.496,0,2.913-0.203,4.251-0.607c1.337-0.405,2.508-1.012,3.515-1.822c1.006-0.81,1.804-1.822,2.392-3.036
			c0.589-1.215,0.883-2.632,0.883-4.251c0-0.834-0.135-1.809-0.405-2.926c-0.27-1.116-0.779-2.177-1.527-3.184
			c-0.749-1.006-1.785-1.859-3.11-2.558c-1.325-0.699-3.043-1.049-5.153-1.049h-5.3V28.29z"/>
		<path fill="#FF0000" d="M60.962,43.964h3.202l11.152,26.059h-4.122l-2.613-6.441H56.177l-2.576,6.441h-4.122L60.962,43.964z
			 M67.293,60.49l-4.858-11.962h-0.074L57.429,60.49H67.293z"/>
		<path fill="#FF0000" d="M78.481,52.577h3.092v2.724h0.074c0.074-0.245,0.263-0.552,0.571-0.92
			c0.306-0.368,0.699-0.718,1.178-1.049c0.478-0.331,1.043-0.613,1.693-0.846c0.65-0.233,1.368-0.35,2.153-0.35
			c1.3,0,2.392,0.27,3.276,0.81c0.883,0.54,1.607,1.35,2.172,2.429c0.564-1.079,1.362-1.889,2.392-2.429
			c1.031-0.539,2.073-0.81,3.129-0.81c1.349,0,2.453,0.221,3.313,0.662c0.859,0.442,1.533,1.025,2.024,1.748
			c0.49,0.724,0.828,1.546,1.012,2.466c0.184,0.92,0.276,1.871,0.276,2.852v10.158h-3.312v-9.717c0-0.662-0.043-1.3-0.129-1.914
			c-0.086-0.613-0.264-1.153-0.534-1.62c-0.27-0.466-0.65-0.84-1.141-1.123c-0.491-0.282-1.141-0.423-1.951-0.423
			c-1.595,0-2.736,0.491-3.423,1.472c-0.687,0.982-1.031,2.245-1.031,3.791v9.533h-3.312v-9.128c0-0.834-0.043-1.595-0.129-2.282
			c-0.086-0.687-0.258-1.282-0.515-1.785c-0.258-0.503-0.626-0.895-1.104-1.178c-0.478-0.282-1.123-0.423-1.932-0.423
			c-0.589,0-1.159,0.117-1.712,0.35c-0.552,0.233-1.037,0.583-1.454,1.049c-0.417,0.466-0.749,1.062-0.994,1.785
			c-0.245,0.724-0.368,1.577-0.368,2.558v9.054h-3.313V52.577z"/>
		<path fill="#FF0000" d="M119.741,56.957c-0.393-0.49-0.878-0.902-1.454-1.233c-0.577-0.331-1.282-0.497-2.116-0.497
			c-0.786,0-1.466,0.166-2.043,0.497c-0.577,0.331-0.865,0.816-0.865,1.454c0,0.515,0.166,0.933,0.497,1.251
			c0.331,0.319,0.723,0.577,1.178,0.773c0.454,0.197,0.938,0.344,1.454,0.442c0.515,0.098,0.957,0.184,1.325,0.258
			c0.711,0.172,1.38,0.381,2.006,0.626c0.626,0.246,1.165,0.565,1.619,0.957c0.454,0.393,0.81,0.871,1.067,1.436
			c0.258,0.565,0.386,1.251,0.386,2.061c0,0.982-0.209,1.822-0.626,2.521c-0.417,0.699-0.957,1.27-1.619,1.711
			c-0.662,0.442-1.417,0.761-2.263,0.957c-0.847,0.196-1.699,0.294-2.558,0.294c-1.448,0-2.718-0.221-3.81-0.662
			c-1.092-0.442-2.067-1.251-2.926-2.429l2.503-2.061c0.539,0.54,1.141,1.018,1.803,1.435c0.663,0.418,1.472,0.626,2.429,0.626
			c0.417,0,0.84-0.043,1.27-0.129c0.429-0.085,0.81-0.221,1.141-0.405c0.331-0.184,0.601-0.417,0.81-0.699
			c0.208-0.282,0.313-0.607,0.313-0.975c0-0.491-0.154-0.895-0.46-1.215c-0.307-0.319-0.675-0.571-1.104-0.755
			c-0.43-0.184-0.883-0.331-1.362-0.441c-0.478-0.111-0.902-0.202-1.27-0.276c-0.712-0.171-1.387-0.368-2.024-0.589
			c-0.638-0.221-1.203-0.515-1.693-0.883c-0.491-0.368-0.883-0.834-1.178-1.399c-0.294-0.564-0.442-1.263-0.442-2.098
			c0-0.908,0.19-1.699,0.57-2.374c0.38-0.675,0.883-1.233,1.509-1.675c0.626-0.442,1.337-0.773,2.135-0.994
			c0.797-0.221,1.601-0.331,2.411-0.331c1.178,0,2.306,0.221,3.386,0.662c1.079,0.442,1.938,1.178,2.576,2.208L119.741,56.957z"/>
		<path fill="#FF0000" d="M136.782,55.448h-4.748v7.913c0,0.491,0.012,0.975,0.037,1.454c0.024,0.478,0.116,0.908,0.276,1.288
			c0.159,0.381,0.405,0.687,0.736,0.92c0.331,0.234,0.815,0.35,1.453,0.35c0.392,0,0.797-0.037,1.215-0.11
			c0.417-0.074,0.797-0.208,1.141-0.405v3.018c-0.393,0.221-0.902,0.374-1.527,0.46c-0.626,0.086-1.11,0.129-1.454,0.129
			c-1.276,0-2.263-0.178-2.963-0.534c-0.699-0.355-1.215-0.815-1.546-1.38c-0.331-0.564-0.528-1.196-0.589-1.896
			c-0.061-0.699-0.092-1.405-0.092-2.117v-9.091h-3.828v-2.871h3.828v-4.895h3.313v4.895h4.748V55.448z"/>
		<path fill="#FF0000" d="M144.179,62.515c0,0.761,0.166,1.454,0.497,2.079c0.331,0.626,0.766,1.16,1.307,1.601
			c0.539,0.442,1.165,0.786,1.877,1.031c0.711,0.246,1.448,0.368,2.208,0.368c1.03,0,1.926-0.239,2.687-0.718
			c0.76-0.478,1.46-1.11,2.098-1.896l2.503,1.914c-1.84,2.38-4.417,3.57-7.729,3.57c-1.374,0-2.619-0.234-3.736-0.699
			c-1.117-0.466-2.061-1.11-2.834-1.932c-0.773-0.822-1.368-1.791-1.785-2.908c-0.417-1.116-0.626-2.325-0.626-3.625
			c0-1.3,0.227-2.509,0.681-3.626c0.454-1.116,1.08-2.085,1.877-2.908c0.797-0.822,1.748-1.466,2.852-1.932
			c1.104-0.466,2.306-0.699,3.607-0.699c1.546,0,2.852,0.27,3.92,0.81c1.067,0.54,1.944,1.246,2.632,2.116
			c0.687,0.871,1.184,1.853,1.491,2.944c0.306,1.092,0.46,2.203,0.46,3.331v1.178H144.179z M154.632,59.865
			c-0.025-0.736-0.142-1.411-0.35-2.024c-0.209-0.613-0.521-1.147-0.939-1.601c-0.417-0.454-0.938-0.81-1.564-1.067
			c-0.626-0.258-1.356-0.386-2.19-0.386c-0.81,0-1.552,0.154-2.227,0.46c-0.675,0.307-1.246,0.706-1.711,1.196
			c-0.467,0.491-0.828,1.037-1.086,1.638c-0.258,0.602-0.387,1.196-0.387,1.785H154.632z"/>
		<path fill="#FF0000" d="M162.766,52.577h3.312v2.687h0.074c0.221-0.466,0.515-0.889,0.883-1.27
			c0.368-0.38,0.779-0.705,1.233-0.975c0.454-0.27,0.951-0.484,1.491-0.644c0.539-0.159,1.08-0.239,1.619-0.239
			c0.539,0,1.031,0.074,1.472,0.221l-0.147,3.57c-0.271-0.074-0.54-0.134-0.81-0.184c-0.271-0.049-0.54-0.074-0.81-0.074
			c-1.619,0-2.859,0.454-3.717,1.362c-0.859,0.908-1.288,2.319-1.288,4.233v8.76h-3.312V52.577z"/>
		<path fill="#FF0000" d="M193.831,70.023h-3.313V67.52h-0.073c-0.638,0.933-1.515,1.656-2.632,2.171
			c-1.117,0.516-2.263,0.773-3.441,0.773c-1.349,0-2.571-0.234-3.662-0.699c-1.092-0.466-2.024-1.116-2.797-1.951
			c-0.773-0.834-1.368-1.803-1.785-2.908c-0.418-1.104-0.626-2.306-0.626-3.607c0-1.3,0.208-2.509,0.626-3.626
			c0.417-1.116,1.012-2.085,1.785-2.908c0.773-0.822,1.705-1.466,2.797-1.932c1.092-0.466,2.313-0.699,3.662-0.699
			c1.252,0,2.429,0.264,3.533,0.791c1.104,0.528,1.951,1.246,2.54,2.153h0.073V42.198h3.313V70.023z M184.777,67.373
			c0.883,0,1.68-0.153,2.392-0.46c0.712-0.306,1.313-0.724,1.803-1.251c0.491-0.527,0.871-1.165,1.141-1.914
			c0.27-0.749,0.405-1.564,0.405-2.448c0-0.883-0.135-1.699-0.405-2.448c-0.27-0.748-0.65-1.386-1.141-1.914
			c-0.491-0.527-1.092-0.944-1.803-1.251c-0.712-0.307-1.509-0.46-2.392-0.46c-0.883,0-1.681,0.154-2.392,0.46
			c-0.712,0.307-1.313,0.724-1.803,1.251c-0.491,0.528-0.871,1.166-1.141,1.914c-0.27,0.749-0.405,1.564-0.405,2.448
			c0,0.883,0.135,1.699,0.405,2.448c0.27,0.749,0.65,1.386,1.141,1.914c0.491,0.528,1.092,0.945,1.803,1.251
			C183.096,67.22,183.893,67.373,184.777,67.373z"/>
		<path fill="#FF0000" d="M199.536,54.712c0.932-0.859,2.012-1.503,3.239-1.932c1.227-0.429,2.453-0.644,3.681-0.644
			c1.276,0,2.374,0.16,3.294,0.478c0.92,0.319,1.675,0.749,2.263,1.288c0.589,0.54,1.024,1.159,1.307,1.859
			c0.282,0.699,0.423,1.43,0.423,2.19v8.907c0,0.614,0.012,1.178,0.037,1.693c0.024,0.515,0.061,1.006,0.111,1.472h-2.945
			c-0.074-0.883-0.111-1.767-0.111-2.65h-0.073c-0.736,1.129-1.607,1.926-2.613,2.392c-1.006,0.466-2.172,0.699-3.497,0.699
			c-0.81,0-1.583-0.11-2.319-0.331c-0.736-0.221-1.38-0.552-1.932-0.994c-0.552-0.441-0.988-0.987-1.307-1.638
			c-0.319-0.65-0.479-1.405-0.479-2.264c0-1.128,0.251-2.073,0.755-2.834c0.503-0.76,1.19-1.38,2.061-1.859
			c0.871-0.478,1.889-0.822,3.055-1.031c1.165-0.208,2.411-0.313,3.736-0.313h2.429v-0.736c0-0.442-0.086-0.883-0.258-1.325
			c-0.172-0.442-0.43-0.84-0.773-1.196c-0.344-0.355-0.773-0.638-1.288-0.847c-0.515-0.208-1.129-0.313-1.84-0.313
			c-0.638,0-1.196,0.061-1.675,0.184c-0.478,0.123-0.914,0.276-1.307,0.46c-0.393,0.184-0.749,0.399-1.067,0.644
			c-0.319,0.246-0.626,0.478-0.92,0.699L199.536,54.712z M208.884,61.631c-0.785,0-1.589,0.043-2.411,0.129
			c-0.822,0.086-1.57,0.252-2.245,0.497c-0.675,0.246-1.227,0.589-1.656,1.03c-0.429,0.442-0.644,1.006-0.644,1.693
			c0,1.006,0.337,1.73,1.012,2.172c0.674,0.441,1.588,0.662,2.742,0.662c0.908,0,1.681-0.153,2.319-0.46
			c0.638-0.307,1.153-0.705,1.546-1.196c0.392-0.491,0.674-1.036,0.847-1.638c0.171-0.601,0.258-1.196,0.258-1.785v-1.104H208.884z"
			/>
		<path fill="#FF0000" d="M219.19,52.577h3.092v2.724h0.073c0.074-0.245,0.264-0.552,0.571-0.92
			c0.306-0.368,0.699-0.718,1.178-1.049c0.479-0.331,1.043-0.613,1.693-0.846c0.65-0.233,1.368-0.35,2.153-0.35
			c1.3,0,2.392,0.27,3.276,0.81c0.883,0.54,1.607,1.35,2.171,2.429c0.564-1.079,1.362-1.889,2.392-2.429
			c1.031-0.539,2.073-0.81,3.129-0.81c1.349,0,2.453,0.221,3.312,0.662c0.859,0.442,1.533,1.025,2.024,1.748
			c0.491,0.724,0.828,1.546,1.012,2.466c0.184,0.92,0.276,1.871,0.276,2.852v10.158h-3.312v-9.717c0-0.662-0.043-1.3-0.129-1.914
			c-0.086-0.613-0.264-1.153-0.533-1.62c-0.271-0.466-0.65-0.84-1.141-1.123c-0.491-0.282-1.141-0.423-1.951-0.423
			c-1.595,0-2.736,0.491-3.423,1.472c-0.687,0.982-1.03,2.245-1.03,3.791v9.533h-3.313v-9.128c0-0.834-0.043-1.595-0.129-2.282
			c-0.086-0.687-0.258-1.282-0.515-1.785c-0.258-0.503-0.626-0.895-1.104-1.178c-0.478-0.282-1.122-0.423-1.932-0.423
			c-0.589,0-1.159,0.117-1.711,0.35c-0.552,0.233-1.037,0.583-1.454,1.049c-0.418,0.466-0.749,1.062-0.994,1.785
			c-0.246,0.724-0.368,1.577-0.368,2.558v9.054h-3.312V52.577z"/>
	</g>
	<polygon fill="#FF0000" points="34.657,86.285 28.238,79.866 18.538,89.567 8.837,79.866 2.418,86.285 12.119,95.985 
		2.418,105.686 8.837,112.105 18.538,102.404 28.238,112.105 34.657,105.686 24.956,95.985 	"/>
	<polygon fill="#FF0000" points="34.657,47.622 28.238,41.204 18.538,50.904 8.837,41.204 2.418,47.622 12.119,57.323 2.418,67.023 
		8.837,73.442 18.538,63.742 28.238,73.442 34.657,67.023 24.956,57.323 	"/>
	<polygon fill="#FF0000" points="34.657,8.96 28.238,2.541 18.538,12.242 8.837,2.541 2.418,8.96 12.119,18.66 2.418,28.361 
		8.837,34.78 18.538,25.079 28.238,34.78 34.657,28.361 24.956,18.66 	"/>
</g>
</svg>
