<?xml version="1.0" encoding="UTF-8" standalone="no"?>
<svg
   xmlns:dc="http://purl.org/dc/elements/1.1/"
   xmlns:cc="http://creativecommons.org/ns#"
   xmlns:rdf="http://www.w3.org/1999/02/22-rdf-syntax-ns#"
   xmlns:svg="http://www.w3.org/2000/svg"
   xmlns="http://www.w3.org/2000/svg"
   viewBox="0 0 762.66669 1018.6667"
   height="1018.6667"
   width="762.66669"
   xml:space="preserve"
   id="svg2"
   version="1.1"><metadata
     id="metadata8"><rdf:RDF><cc:Work
         rdf:about=""><dc:format>image/svg+xml</dc:format><dc:type
           rdf:resource="http://purl.org/dc/dcmitype/StillImage" /></cc:Work></rdf:RDF></metadata><defs
     id="defs6"><clipPath
       id="clipPath18"
       clipPathUnits="userSpaceOnUse"><path
         id="path16"
         d="M 0,764 H 572 V 0 H 0 Z" /></clipPath><clipPath
       id="clipPath26"
       clipPathUnits="userSpaceOnUse"><path
         id="path24"
         d="M 35,722 H 531 V 632 H 35 Z" /></clipPath><clipPath
       id="clipPath104"
       clipPathUnits="userSpaceOnUse"><path
         id="path102"
         d="M 35,603 H 531 V 513 H 35 Z" /></clipPath><clipPath
       id="clipPath182"
       clipPathUnits="userSpaceOnUse"><path
         id="path180"
         d="M 35,484 H 531 V 394 H 35 Z" /></clipPath><clipPath
       id="clipPath260"
       clipPathUnits="userSpaceOnUse"><path
         id="path258"
         d="M 35,365 H 531 V 275 H 35 Z" /></clipPath><clipPath
       id="clipPath338"
       clipPathUnits="userSpaceOnUse"><path
         id="path336"
         d="M 35,246 H 531 V 156 H 35 Z" /></clipPath><clipPath
       id="clipPath416"
       clipPathUnits="userSpaceOnUse"><path
         id="path414"
         d="M 35,130 H 531 V 40 H 35 Z" /></clipPath></defs><g
     transform="matrix(1.3333333,0,0,-1.3333333,0,1018.6667)"
     id="g10"><g
       id="g12"><g
         clip-path="url(#clipPath18)"
         id="g14"><g
           id="g20"><g
             id="g22" /><g
             id="g32"><g
               style="opacity:0.75"
               id="g30"
               clip-path="url(#clipPath26)"><path
                 id="path28"
                 style="fill:#ff0000;fill-opacity:1;fill-rule:nonzero;stroke:none"
                 d="M 531,632 H 35 v 90 h 496 z" /></g></g></g><g
           transform="translate(153.3477,677.1279)"
           id="g34"><path
             id="path36"
             style="fill:#ff0000;fill-opacity:1;fill-rule:nonzero;stroke:none"
             d="m 0,0 c 0,-26.13 -8.157,-40.76 -22.32,-45.128 h 33.713 v 90 H -22.093 C -8.056,40.524 0,26.001 0,0" /></g><g
           transform="translate(58.312,676.2285)"
           id="g38"><path
             id="path40"
             style="fill:#ff0000;fill-opacity:1;fill-rule:nonzero;stroke:none"
             d="M 0,0 C -0.512,4.886 -0.769,17.356 -0.769,25.585 V 45.771 H -23.312 L -11.912,25.2 C -6.789,15.943 -1.666,4.886 0,0" /></g><g
           transform="translate(35.7686,682.5288)"
           id="g42"><path
             id="path44"
             style="fill:#ff0000;fill-opacity:1;fill-rule:nonzero;stroke:none"
             d="M 0,0 C 0.512,-5.143 0.64,-16.586 0.64,-25.072 V -50.529 H 24.721 L 11.528,-24.686 C 6.533,-14.914 1.793,-5.143 0,0" /></g><g
           transform="translate(89.1758,676.8711)"
           id="g46"><path
             id="path48"
             style="fill:#ff0000;fill-opacity:1;fill-rule:nonzero;stroke:none"
             d="m 0,0 c 0,26.131 8.158,40.761 22.249,45.129 h -33.771 v -90 H 21.941 C 7.956,-40.538 0,-26.085 0,0" /></g><g
           transform="translate(121.1978,704.8994)"
           id="g50"><path
             id="path52"
             style="fill:#ff0000;fill-opacity:1;fill-rule:nonzero;stroke:none"
             d="m 0,0 c -6.789,0 -9.991,-6.042 -9.991,-27.771 0,-21.729 3.458,-28.029 10.119,-28.029 6.661,0 9.991,6.043 9.991,27.772 C 10.119,-6.3 6.661,0 0,0" /></g><g
           transform="translate(247.8354,676.8711)"
           id="g54"><path
             id="path56"
             style="fill:#ff0000;fill-opacity:1;fill-rule:nonzero;stroke:none"
             d="m 0,0 c 0,26.131 8.157,40.761 22.249,45.129 h -33.771 v -90 H 21.941 C 7.956,-40.538 0,-26.085 0,0" /></g><g
           transform="translate(201.6392,632)"
           id="g58"><path
             id="path60"
             style="fill:#ff0000;fill-opacity:1;fill-rule:nonzero;stroke:none"
             d="m 0,0 h 15.333 v 19.928 c 0,9.643 0.128,18.386 0.512,26.1 -1.921,-7.07 -5.636,-18.257 -8.454,-26.357 z" /></g><g
           transform="translate(216.9717,722)"
           id="g62"><path
             id="path64"
             style="fill:#ff0000;fill-opacity:1;fill-rule:nonzero;stroke:none"
             d="m 0,0 h -32.791 l 7.942,-22.115 c 3.843,-10.671 7.301,-21.343 8.454,-27.643 1.281,6.3 4.611,16.716 8.582,27.772 z" /></g><g
           transform="translate(183.6694,678.0283)"
           id="g66"><path
             id="path68"
             style="fill:#ff0000;fill-opacity:1;fill-rule:nonzero;stroke:none"
             d="m 0,0 c 0.256,-7.458 0.512,-16.457 0.512,-26.1 v -19.928 h 15.332 l -7.39,19.671 C 5.635,-18.385 1.921,-7.071 0,0" /></g><g
           transform="translate(279.8569,704.8994)"
           id="g70"><path
             id="path72"
             style="fill:#ff0000;fill-opacity:1;fill-rule:nonzero;stroke:none"
             d="m 0,0 c -6.789,0 -9.991,-6.042 -9.991,-27.771 0,-21.729 3.458,-28.029 10.119,-28.029 6.661,0 9.991,6.043 9.991,27.772 C 10.119,-6.3 6.661,0 0,0" /></g><g
           transform="translate(344.4092,666.457)"
           id="g74"><path
             id="path76"
             style="fill:#ff0000;fill-opacity:1;fill-rule:nonzero;stroke:none"
             d="M 0,0 V -34.457 H 16.267 L 5.763,0 Z" /></g><g
           transform="translate(382.1953,694.6143)"
           id="g78"><path
             id="path80"
             style="fill:#ff0000;fill-opacity:1;fill-rule:nonzero;stroke:none"
             d="M 0,0 C 0,-11.7 -4.483,-19.286 -11.784,-23.657 L 1.28,-62.614 h 11.268 v 90 H -27.796 C -11.656,27.386 0,20.057 0,0" /></g><g
           transform="translate(312.0078,677.1279)"
           id="g82"><path
             id="path84"
             style="fill:#ff0000;fill-opacity:1;fill-rule:nonzero;stroke:none"
             d="m 0,0 c 0,-26.13 -8.158,-40.76 -22.321,-45.128 h 33.716 v 90 H -22.094 C -8.057,40.524 0,26.001 0,0" /></g><g
           transform="translate(352.8623,704.8994)"
           id="g86"><path
             id="path88"
             style="fill:#ff0000;fill-opacity:1;fill-rule:nonzero;stroke:none"
             d="m 0,0 h -8.453 v -21.985 h 8.069 c 6.148,0 8.454,3.6 8.454,11.057 C 8.07,-3.471 5.893,0 0,0" /></g><g
           transform="translate(501.3486,722)"
           id="g90"><path
             id="path92"
             style="fill:#ff0000;fill-opacity:1;fill-rule:nonzero;stroke:none"
             d="m 0,0 c 11.065,-3.45 15.708,-13.032 18.436,-26.613 l -20.751,-5.658 c -1.538,10.028 -2.947,15.171 -8.198,15.171 -6.917,0 -9.606,-7.328 -9.606,-27.771 0,-20.7 2.689,-28.029 9.862,-28.029 4.995,0 6.66,3.601 9.095,14.657 l 19.853,-6.814 C 15.593,-77.796 10.312,-86.7 -0.315,-89.999 H 29.651 V 0 Z" /></g><g
           transform="translate(459.0703,676.8716)"
           id="g94"><path
             id="path96"
             style="fill:#ff0000;fill-opacity:1;fill-rule:nonzero;stroke:none"
             d="M 0,0 C 0,25.785 8.12,40.7 22.187,45.128 H -10.96 V 26.743 H -43.064 V 11.314 h 20.365 V -6.943 H -43.064 V -26.486 H -10.96 V -44.87 H 21.77 C 7.31,-40.356 0,-25.041 0,0" /></g><g
           id="g98"><g
             id="g100" /><g
             id="g110"><g
               style="opacity:0.89999402"
               id="g108"
               clip-path="url(#clipPath104)"><path
                 id="path106"
                 style="fill:#30309d;fill-opacity:1;fill-rule:nonzero;stroke:none"
                 d="M 531,513 H 35 v 90 h 496 z" /></g></g></g><g
           transform="translate(153.3477,558.1279)"
           id="g112"><path
             id="path114"
             style="fill:#30309d;fill-opacity:1;fill-rule:nonzero;stroke:none"
             d="m 0,0 c 0,-26.13 -8.157,-40.76 -22.32,-45.128 h 33.713 v 90 H -22.093 C -8.056,40.524 0,26.001 0,0" /></g><g
           transform="translate(58.312,557.2285)"
           id="g116"><path
             id="path118"
             style="fill:#30309d;fill-opacity:1;fill-rule:nonzero;stroke:none"
             d="M 0,0 C -0.512,4.886 -0.769,17.356 -0.769,25.585 V 45.771 H -23.312 L -11.912,25.2 C -6.789,15.943 -1.666,4.886 0,0" /></g><g
           transform="translate(35.7686,563.5288)"
           id="g120"><path
             id="path122"
             style="fill:#30309d;fill-opacity:1;fill-rule:nonzero;stroke:none"
             d="M 0,0 C 0.512,-5.143 0.64,-16.586 0.64,-25.072 V -50.529 H 24.721 L 11.528,-24.686 C 6.533,-14.914 1.793,-5.143 0,0" /></g><g
           transform="translate(89.1758,557.8711)"
           id="g124"><path
             id="path126"
             style="fill:#30309d;fill-opacity:1;fill-rule:nonzero;stroke:none"
             d="m 0,0 c 0,26.131 8.158,40.761 22.249,45.129 h -33.771 v -90 H 21.941 C 7.956,-40.538 0,-26.085 0,0" /></g><g
           transform="translate(121.1978,585.8994)"
           id="g128"><path
             id="path130"
             style="fill:#30309d;fill-opacity:1;fill-rule:nonzero;stroke:none"
             d="m 0,0 c -6.789,0 -9.991,-6.042 -9.991,-27.771 0,-21.729 3.458,-28.029 10.119,-28.029 6.661,0 9.991,6.043 9.991,27.772 C 10.119,-6.3 6.661,0 0,0" /></g><g
           transform="translate(247.8354,557.8711)"
           id="g132"><path
             id="path134"
             style="fill:#30309d;fill-opacity:1;fill-rule:nonzero;stroke:none"
             d="m 0,0 c 0,26.131 8.157,40.761 22.249,45.129 h -33.771 v -90 H 21.941 C 7.956,-40.538 0,-26.085 0,0" /></g><g
           transform="translate(201.6392,513)"
           id="g136"><path
             id="path138"
             style="fill:#30309d;fill-opacity:1;fill-rule:nonzero;stroke:none"
             d="m 0,0 h 15.333 v 19.928 c 0,9.643 0.128,18.386 0.512,26.1 -1.921,-7.07 -5.636,-18.257 -8.454,-26.357 z" /></g><g
           transform="translate(216.9717,603)"
           id="g140"><path
             id="path142"
             style="fill:#30309d;fill-opacity:1;fill-rule:nonzero;stroke:none"
             d="m 0,0 h -32.791 l 7.942,-22.115 c 3.843,-10.671 7.301,-21.343 8.454,-27.643 1.281,6.3 4.611,16.716 8.582,27.772 z" /></g><g
           transform="translate(183.6694,559.0283)"
           id="g144"><path
             id="path146"
             style="fill:#30309d;fill-opacity:1;fill-rule:nonzero;stroke:none"
             d="m 0,0 c 0.256,-7.458 0.512,-16.457 0.512,-26.1 v -19.928 h 15.332 l -7.39,19.671 C 5.635,-18.385 1.921,-7.071 0,0" /></g><g
           transform="translate(279.8569,585.8994)"
           id="g148"><path
             id="path150"
             style="fill:#30309d;fill-opacity:1;fill-rule:nonzero;stroke:none"
             d="m 0,0 c -6.789,0 -9.991,-6.042 -9.991,-27.771 0,-21.729 3.458,-28.029 10.119,-28.029 6.661,0 9.991,6.043 9.991,27.772 C 10.119,-6.3 6.661,0 0,0" /></g><g
           transform="translate(344.4092,547.457)"
           id="g152"><path
             id="path154"
             style="fill:#30309d;fill-opacity:1;fill-rule:nonzero;stroke:none"
             d="M 0,0 V -34.457 H 16.267 L 5.763,0 Z" /></g><g
           transform="translate(382.1953,575.6143)"
           id="g156"><path
             id="path158"
             style="fill:#30309d;fill-opacity:1;fill-rule:nonzero;stroke:none"
             d="M 0,0 C 0,-11.7 -4.483,-19.286 -11.784,-23.657 L 1.28,-62.614 h 11.268 v 90 H -27.796 C -11.656,27.386 0,20.057 0,0" /></g><g
           transform="translate(312.0078,558.1279)"
           id="g160"><path
             id="path162"
             style="fill:#30309d;fill-opacity:1;fill-rule:nonzero;stroke:none"
             d="m 0,0 c 0,-26.13 -8.158,-40.76 -22.321,-45.128 h 33.716 v 90 H -22.094 C -8.057,40.524 0,26.001 0,0" /></g><g
           transform="translate(352.8623,585.8994)"
           id="g164"><path
             id="path166"
             style="fill:#30309d;fill-opacity:1;fill-rule:nonzero;stroke:none"
             d="m 0,0 h -8.453 v -21.985 h 8.069 c 6.148,0 8.454,3.6 8.454,11.057 C 8.07,-3.471 5.893,0 0,0" /></g><g
           transform="translate(501.3486,603)"
           id="g168"><path
             id="path170"
             style="fill:#30309d;fill-opacity:1;fill-rule:nonzero;stroke:none"
             d="m 0,0 c 11.065,-3.45 15.708,-13.032 18.436,-26.613 l -20.751,-5.658 c -1.538,10.028 -2.947,15.171 -8.198,15.171 -6.917,0 -9.606,-7.328 -9.606,-27.771 0,-20.7 2.689,-28.029 9.862,-28.029 4.995,0 6.66,3.601 9.095,14.657 l 19.853,-6.814 C 15.593,-77.796 10.312,-86.7 -0.315,-89.999 H 29.651 V 0 Z" /></g><g
           transform="translate(459.0703,557.8716)"
           id="g172"><path
             id="path174"
             style="fill:#30309d;fill-opacity:1;fill-rule:nonzero;stroke:none"
             d="M 0,0 C 0,25.785 8.12,40.7 22.187,45.128 H -10.96 V 26.743 H -43.064 V 11.314 h 20.365 V -6.943 H -43.064 V -26.486 H -10.96 V -44.87 H 21.77 C 7.31,-40.356 0,-25.041 0,0" /></g><g
           id="g176"><g
             id="g178" /><g
             id="g188"><g
               style="opacity:0.89999402"
               id="g186"
               clip-path="url(#clipPath182)"><path
                 id="path184"
                 style="fill:#ff6600;fill-opacity:1;fill-rule:nonzero;stroke:none"
                 d="M 531,394 H 35 v 90 h 496 z" /></g></g></g><g
           transform="translate(153.3477,439.1279)"
           id="g190"><path
             id="path192"
             style="fill:#ff6600;fill-opacity:1;fill-rule:nonzero;stroke:none"
             d="m 0,0 c 0,-26.13 -8.157,-40.761 -22.32,-45.128 h 33.713 v 90 H -22.093 C -8.056,40.524 0,26.001 0,0" /></g><g
           transform="translate(58.312,438.2285)"
           id="g194"><path
             id="path196"
             style="fill:#ff6600;fill-opacity:1;fill-rule:nonzero;stroke:none"
             d="M 0,0 C -0.512,4.886 -0.769,17.356 -0.769,25.585 V 45.771 H -23.312 L -11.912,25.2 C -6.789,15.943 -1.666,4.886 0,0" /></g><g
           transform="translate(35.7686,444.5283)"
           id="g198"><path
             id="path200"
             style="fill:#ff6600;fill-opacity:1;fill-rule:nonzero;stroke:none"
             d="M 0,0 C 0.512,-5.143 0.64,-16.585 0.64,-25.071 V -50.528 H 24.721 L 11.528,-24.686 C 6.533,-14.914 1.793,-5.143 0,0" /></g><g
           transform="translate(89.1758,438.8711)"
           id="g202"><path
             id="path204"
             style="fill:#ff6600;fill-opacity:1;fill-rule:nonzero;stroke:none"
             d="m 0,0 c 0,26.131 8.158,40.761 22.249,45.129 h -33.771 v -90 H 21.941 C 7.956,-40.538 0,-26.086 0,0" /></g><g
           transform="translate(121.1978,466.8994)"
           id="g206"><path
             id="path208"
             style="fill:#ff6600;fill-opacity:1;fill-rule:nonzero;stroke:none"
             d="m 0,0 c -6.789,0 -9.991,-6.042 -9.991,-27.771 0,-21.729 3.458,-28.029 10.119,-28.029 6.661,0 9.991,6.043 9.991,27.772 C 10.119,-6.3 6.661,0 0,0" /></g><g
           transform="translate(247.8354,438.8711)"
           id="g210"><path
             id="path212"
             style="fill:#ff6600;fill-opacity:1;fill-rule:nonzero;stroke:none"
             d="m 0,0 c 0,26.131 8.157,40.761 22.249,45.129 h -33.771 v -90 H 21.941 C 7.956,-40.538 0,-26.086 0,0" /></g><g
           transform="translate(201.6392,394)"
           id="g214"><path
             id="path216"
             style="fill:#ff6600;fill-opacity:1;fill-rule:nonzero;stroke:none"
             d="m 0,0 h 15.333 v 19.929 c 0,9.642 0.128,18.384 0.512,26.099 C 13.924,38.957 10.209,27.771 7.391,19.672 Z" /></g><g
           transform="translate(216.9717,484)"
           id="g218"><path
             id="path220"
             style="fill:#ff6600;fill-opacity:1;fill-rule:nonzero;stroke:none"
             d="m 0,0 h -32.791 l 7.942,-22.115 c 3.843,-10.671 7.301,-21.343 8.454,-27.643 1.281,6.3 4.611,16.715 8.582,27.772 z" /></g><g
           transform="translate(183.6694,440.0283)"
           id="g222"><path
             id="path224"
             style="fill:#ff6600;fill-opacity:1;fill-rule:nonzero;stroke:none"
             d="m 0,0 c 0.256,-7.457 0.512,-16.457 0.512,-26.1 v -19.928 h 15.332 l -7.39,19.672 C 5.635,-18.386 1.921,-7.071 0,0" /></g><g
           transform="translate(279.8569,466.8994)"
           id="g226"><path
             id="path228"
             style="fill:#ff6600;fill-opacity:1;fill-rule:nonzero;stroke:none"
             d="m 0,0 c -6.789,0 -9.991,-6.042 -9.991,-27.771 0,-21.729 3.458,-28.029 10.119,-28.029 6.661,0 9.991,6.043 9.991,27.772 C 10.119,-6.3 6.661,0 0,0" /></g><g
           transform="translate(344.4092,428.457)"
           id="g230"><path
             id="path232"
             style="fill:#ff6600;fill-opacity:1;fill-rule:nonzero;stroke:none"
             d="M 0,0 V -34.457 H 16.267 L 5.763,0 Z" /></g><g
           transform="translate(382.1953,456.6143)"
           id="g234"><path
             id="path236"
             style="fill:#ff6600;fill-opacity:1;fill-rule:nonzero;stroke:none"
             d="M 0,0 C 0,-11.7 -4.483,-19.286 -11.784,-23.657 L 1.28,-62.614 h 11.268 v 90 H -27.796 C -11.656,27.386 0,20.057 0,0" /></g><g
           transform="translate(312.0078,439.1279)"
           id="g238"><path
             id="path240"
             style="fill:#ff6600;fill-opacity:1;fill-rule:nonzero;stroke:none"
             d="m 0,0 c 0,-26.13 -8.158,-40.761 -22.321,-45.128 h 33.716 v 90 H -22.094 C -8.057,40.524 0,26.001 0,0" /></g><g
           transform="translate(352.8623,466.8994)"
           id="g242"><path
             id="path244"
             style="fill:#ff6600;fill-opacity:1;fill-rule:nonzero;stroke:none"
             d="m 0,0 h -8.453 v -21.985 h 8.069 c 6.148,0 8.454,3.599 8.454,11.057 C 8.07,-3.471 5.893,0 0,0" /></g><g
           transform="translate(501.3486,484)"
           id="g246"><path
             id="path248"
             style="fill:#ff6600;fill-opacity:1;fill-rule:nonzero;stroke:none"
             d="m 0,0 c 11.065,-3.45 15.708,-13.032 18.436,-26.613 l -20.751,-5.658 c -1.538,10.028 -2.947,15.171 -8.198,15.171 -6.917,0 -9.606,-7.328 -9.606,-27.771 0,-20.699 2.689,-28.028 9.862,-28.028 4.995,0 6.66,3.6 9.095,14.657 l 19.853,-6.815 C 15.593,-77.796 10.312,-86.699 -0.315,-89.999 H 29.651 V 0 Z" /></g><g
           transform="translate(459.0703,438.8721)"
           id="g250"><path
             id="path252"
             style="fill:#ff6600;fill-opacity:1;fill-rule:nonzero;stroke:none"
             d="M 0,0 C 0,25.785 8.12,40.7 22.187,45.128 H -10.96 V 26.743 h -32.104 v -15.43 h 20.365 V -6.943 H -43.064 V -26.486 H -10.96 V -44.871 H 21.77 C 7.31,-40.356 0,-25.041 0,0" /></g><g
           id="g254"><g
             id="g256" /><g
             id="g266"><g
               style="opacity:0.80000299"
               id="g264"
               clip-path="url(#clipPath260)"><path
                 id="path262"
                 style="fill:#ffcd00;fill-opacity:1;fill-rule:nonzero;stroke:none"
                 d="M 531,275 H 35 v 90 h 496 z" /></g></g></g><g
           transform="translate(153.3477,320.1279)"
           id="g268"><path
             id="path270"
             style="fill:#ffcd00;fill-opacity:1;fill-rule:nonzero;stroke:none"
             d="m 0,0 c 0,-26.13 -8.157,-40.761 -22.32,-45.128 h 33.713 v 90 H -22.093 C -8.056,40.524 0,26.002 0,0" /></g><g
           transform="translate(58.312,319.2285)"
           id="g272"><path
             id="path274"
             style="fill:#ffcd00;fill-opacity:1;fill-rule:nonzero;stroke:none"
             d="m 0,0 c -0.512,4.886 -0.769,17.356 -0.769,25.585 v 20.186 h -22.543 l 11.4,-20.572 C -6.789,15.943 -1.666,4.886 0,0" /></g><g
           transform="translate(35.7686,325.5283)"
           id="g276"><path
             id="path278"
             style="fill:#ffcd00;fill-opacity:1;fill-rule:nonzero;stroke:none"
             d="M 0,0 C 0.512,-5.143 0.64,-16.585 0.64,-25.071 V -50.528 H 24.721 L 11.528,-24.686 C 6.533,-14.914 1.793,-5.143 0,0" /></g><g
           transform="translate(89.1758,319.8711)"
           id="g280"><path
             id="path282"
             style="fill:#ffcd00;fill-opacity:1;fill-rule:nonzero;stroke:none"
             d="m 0,0 c 0,26.131 8.158,40.762 22.249,45.129 h -33.771 v -90 H 21.941 C 7.956,-40.538 0,-26.086 0,0" /></g><g
           transform="translate(121.1978,347.8994)"
           id="g284"><path
             id="path286"
             style="fill:#ffcd00;fill-opacity:1;fill-rule:nonzero;stroke:none"
             d="m 0,0 c -6.789,0 -9.991,-6.042 -9.991,-27.771 0,-21.729 3.458,-28.029 10.119,-28.029 6.661,0 9.991,6.043 9.991,27.772 C 10.119,-6.3 6.661,0 0,0" /></g><g
           transform="translate(247.8354,319.8711)"
           id="g288"><path
             id="path290"
             style="fill:#ffcd00;fill-opacity:1;fill-rule:nonzero;stroke:none"
             d="m 0,0 c 0,26.131 8.157,40.762 22.249,45.129 h -33.771 v -90 H 21.941 C 7.956,-40.538 0,-26.086 0,0" /></g><g
           transform="translate(201.6392,275)"
           id="g292"><path
             id="path294"
             style="fill:#ffcd00;fill-opacity:1;fill-rule:nonzero;stroke:none"
             d="m 0,0 h 15.333 v 19.929 c 0,9.642 0.128,18.384 0.512,26.099 C 13.924,38.957 10.209,27.771 7.391,19.672 Z" /></g><g
           transform="translate(216.9717,365)"
           id="g296"><path
             id="path298"
             style="fill:#ffcd00;fill-opacity:1;fill-rule:nonzero;stroke:none"
             d="m 0,0 h -32.791 l 7.942,-22.115 c 3.843,-10.671 7.301,-21.343 8.454,-27.643 1.281,6.3 4.611,16.715 8.582,27.772 z" /></g><g
           transform="translate(183.6694,321.0283)"
           id="g300"><path
             id="path302"
             style="fill:#ffcd00;fill-opacity:1;fill-rule:nonzero;stroke:none"
             d="m 0,0 c 0.256,-7.457 0.512,-16.457 0.512,-26.1 v -19.928 h 15.332 l -7.39,19.672 C 5.635,-18.386 1.921,-7.071 0,0" /></g><g
           transform="translate(279.8569,347.8994)"
           id="g304"><path
             id="path306"
             style="fill:#ffcd00;fill-opacity:1;fill-rule:nonzero;stroke:none"
             d="m 0,0 c -6.789,0 -9.991,-6.042 -9.991,-27.771 0,-21.729 3.458,-28.029 10.119,-28.029 6.661,0 9.991,6.043 9.991,27.772 C 10.119,-6.3 6.661,0 0,0" /></g><g
           transform="translate(344.4092,309.457)"
           id="g308"><path
             id="path310"
             style="fill:#ffcd00;fill-opacity:1;fill-rule:nonzero;stroke:none"
             d="M 0,0 V -34.457 H 16.267 L 5.763,0 Z" /></g><g
           transform="translate(382.1953,337.6143)"
           id="g312"><path
             id="path314"
             style="fill:#ffcd00;fill-opacity:1;fill-rule:nonzero;stroke:none"
             d="M 0,0 C 0,-11.7 -4.483,-19.286 -11.784,-23.657 L 1.28,-62.614 h 11.268 v 90 H -27.796 C -11.656,27.386 0,20.057 0,0" /></g><g
           transform="translate(312.0078,320.1279)"
           id="g316"><path
             id="path318"
             style="fill:#ffcd00;fill-opacity:1;fill-rule:nonzero;stroke:none"
             d="m 0,0 c 0,-26.13 -8.158,-40.761 -22.321,-45.128 h 33.716 v 90 H -22.094 C -8.057,40.524 0,26.002 0,0" /></g><g
           transform="translate(352.8623,347.8994)"
           id="g320"><path
             id="path322"
             style="fill:#ffcd00;fill-opacity:1;fill-rule:nonzero;stroke:none"
             d="m 0,0 h -8.453 v -21.985 h 8.069 c 6.148,0 8.454,3.599 8.454,11.057 C 8.07,-3.472 5.893,0 0,0" /></g><g
           transform="translate(501.3486,365)"
           id="g324"><path
             id="path326"
             style="fill:#ffcd00;fill-opacity:1;fill-rule:nonzero;stroke:none"
             d="m 0,0 c 11.065,-3.45 15.708,-13.031 18.436,-26.613 l -20.751,-5.658 c -1.538,10.029 -2.947,15.171 -8.198,15.171 -6.917,0 -9.606,-7.328 -9.606,-27.771 0,-20.699 2.689,-28.028 9.862,-28.028 4.995,0 6.66,3.6 9.095,14.657 l 19.853,-6.815 C 15.593,-77.796 10.312,-86.699 -0.315,-89.999 H 29.651 V 0 Z" /></g><g
           transform="translate(459.0703,319.8721)"
           id="g328"><path
             id="path330"
             style="fill:#ffcd00;fill-opacity:1;fill-rule:nonzero;stroke:none"
             d="M 0,0 C 0,25.784 8.12,40.7 22.187,45.128 H -10.96 V 26.742 H -43.064 V 11.313 h 20.365 V -6.943 H -43.064 V -26.486 H -10.96 V -44.871 H 21.77 C 7.31,-40.356 0,-25.041 0,0" /></g><g
           id="g332"><g
             id="g334" /><g
             id="g344"><g
               style="opacity:0.89999402"
               id="g342"
               clip-path="url(#clipPath338)"><path
                 id="path340"
                 style="fill:#009a00;fill-opacity:1;fill-rule:nonzero;stroke:none"
                 d="M 531,156 H 35 v 90 h 496 z" /></g></g></g><g
           transform="translate(153.3477,201.1279)"
           id="g346"><path
             id="path348"
             style="fill:#009a00;fill-opacity:1;fill-rule:nonzero;stroke:none"
             d="m 0,0 c 0,-26.13 -8.157,-40.761 -22.32,-45.128 h 33.713 v 90 H -22.093 C -8.056,40.524 0,26.002 0,0" /></g><g
           transform="translate(58.312,200.2285)"
           id="g350"><path
             id="path352"
             style="fill:#009a00;fill-opacity:1;fill-rule:nonzero;stroke:none"
             d="m 0,0 c -0.512,4.886 -0.769,17.356 -0.769,25.585 v 20.186 h -22.543 l 11.4,-20.572 C -6.789,15.943 -1.666,4.886 0,0" /></g><g
           transform="translate(35.7686,206.5283)"
           id="g354"><path
             id="path356"
             style="fill:#009a00;fill-opacity:1;fill-rule:nonzero;stroke:none"
             d="M 0,0 C 0.512,-5.143 0.64,-16.585 0.64,-25.071 V -50.528 H 24.721 L 11.528,-24.686 C 6.533,-14.914 1.793,-5.143 0,0" /></g><g
           transform="translate(89.1758,200.8711)"
           id="g358"><path
             id="path360"
             style="fill:#009a00;fill-opacity:1;fill-rule:nonzero;stroke:none"
             d="m 0,0 c 0,26.131 8.158,40.762 22.249,45.129 h -33.771 v -90 H 21.941 C 7.956,-40.538 0,-26.086 0,0" /></g><g
           transform="translate(121.1978,228.8994)"
           id="g362"><path
             id="path364"
             style="fill:#009a00;fill-opacity:1;fill-rule:nonzero;stroke:none"
             d="m 0,0 c -6.789,0 -9.991,-6.042 -9.991,-27.771 0,-21.729 3.458,-28.029 10.119,-28.029 6.661,0 9.991,6.043 9.991,27.772 C 10.119,-6.3 6.661,0 0,0" /></g><g
           transform="translate(247.8354,200.8711)"
           id="g366"><path
             id="path368"
             style="fill:#009a00;fill-opacity:1;fill-rule:nonzero;stroke:none"
             d="m 0,0 c 0,26.131 8.157,40.762 22.249,45.129 h -33.771 v -90 H 21.941 C 7.956,-40.538 0,-26.086 0,0" /></g><g
           transform="translate(201.6392,156)"
           id="g370"><path
             id="path372"
             style="fill:#009a00;fill-opacity:1;fill-rule:nonzero;stroke:none"
             d="m 0,0 h 15.333 v 19.929 c 0,9.642 0.128,18.384 0.512,26.099 C 13.924,38.957 10.209,27.771 7.391,19.672 Z" /></g><g
           transform="translate(216.9717,246)"
           id="g374"><path
             id="path376"
             style="fill:#009a00;fill-opacity:1;fill-rule:nonzero;stroke:none"
             d="m 0,0 h -32.791 l 7.942,-22.115 c 3.843,-10.671 7.301,-21.343 8.454,-27.643 1.281,6.3 4.611,16.715 8.582,27.772 z" /></g><g
           transform="translate(183.6694,202.0283)"
           id="g378"><path
             id="path380"
             style="fill:#009a00;fill-opacity:1;fill-rule:nonzero;stroke:none"
             d="m 0,0 c 0.256,-7.457 0.512,-16.457 0.512,-26.1 v -19.928 h 15.332 l -7.39,19.672 C 5.635,-18.386 1.921,-7.071 0,0" /></g><g
           transform="translate(279.8569,228.8994)"
           id="g382"><path
             id="path384"
             style="fill:#009a00;fill-opacity:1;fill-rule:nonzero;stroke:none"
             d="m 0,0 c -6.789,0 -9.991,-6.042 -9.991,-27.771 0,-21.729 3.458,-28.029 10.119,-28.029 6.661,0 9.991,6.043 9.991,27.772 C 10.119,-6.3 6.661,0 0,0" /></g><g
           transform="translate(344.4092,190.457)"
           id="g386"><path
             id="path388"
             style="fill:#009a00;fill-opacity:1;fill-rule:nonzero;stroke:none"
             d="M 0,0 V -34.457 H 16.267 L 5.763,0 Z" /></g><g
           transform="translate(382.1953,218.6143)"
           id="g390"><path
             id="path392"
             style="fill:#009a00;fill-opacity:1;fill-rule:nonzero;stroke:none"
             d="M 0,0 C 0,-11.7 -4.483,-19.286 -11.784,-23.657 L 1.28,-62.614 h 11.268 v 90 H -27.796 C -11.656,27.386 0,20.057 0,0" /></g><g
           transform="translate(312.0078,201.1279)"
           id="g394"><path
             id="path396"
             style="fill:#009a00;fill-opacity:1;fill-rule:nonzero;stroke:none"
             d="m 0,0 c 0,-26.13 -8.158,-40.761 -22.321,-45.128 h 33.716 v 90 H -22.094 C -8.057,40.524 0,26.002 0,0" /></g><g
           transform="translate(352.8623,228.8994)"
           id="g398"><path
             id="path400"
             style="fill:#009a00;fill-opacity:1;fill-rule:nonzero;stroke:none"
             d="m 0,0 h -8.453 v -21.985 h 8.069 c 6.148,0 8.454,3.599 8.454,11.057 C 8.07,-3.472 5.893,0 0,0" /></g><g
           transform="translate(501.3486,246)"
           id="g402"><path
             id="path404"
             style="fill:#009a00;fill-opacity:1;fill-rule:nonzero;stroke:none"
             d="m 0,0 c 11.065,-3.45 15.708,-13.031 18.436,-26.613 l -20.751,-5.658 c -1.538,10.029 -2.947,15.171 -8.198,15.171 -6.917,0 -9.606,-7.328 -9.606,-27.771 0,-20.699 2.689,-28.028 9.862,-28.028 4.995,0 6.66,3.6 9.095,14.657 l 19.853,-6.815 C 15.593,-77.796 10.312,-86.699 -0.315,-89.999 H 29.651 V 0 Z" /></g><g
           transform="translate(459.0703,200.8721)"
           id="g406"><path
             id="path408"
             style="fill:#009a00;fill-opacity:1;fill-rule:nonzero;stroke:none"
             d="M 0,0 C 0,25.784 8.12,40.7 22.187,45.128 H -10.96 V 26.742 H -43.064 V 11.313 h 20.365 V -6.943 H -43.064 V -26.486 H -10.96 V -44.871 H 21.77 C 7.31,-40.356 0,-25.041 0,0" /></g><g
           id="g410"><g
             id="g412" /><g
             id="g422"><g
               style="opacity:0.80000299"
               id="g420"
               clip-path="url(#clipPath416)"><path
                 id="path418"
                 style="fill:#ee009d;fill-opacity:1;fill-rule:nonzero;stroke:none"
                 d="M 531,40 H 35 v 90 h 496 z" /></g></g></g><g
           transform="translate(153.3477,85.1279)"
           id="g424"><path
             id="path426"
             style="fill:#ee009d;fill-opacity:1;fill-rule:nonzero;stroke:none"
             d="m 0,0 c 0,-26.13 -8.157,-40.761 -22.32,-45.128 h 33.713 v 90 H -22.093 C -8.056,40.524 0,26.002 0,0" /></g><g
           transform="translate(58.312,84.2285)"
           id="g428"><path
             id="path430"
             style="fill:#ee009d;fill-opacity:1;fill-rule:nonzero;stroke:none"
             d="m 0,0 c -0.512,4.886 -0.769,17.356 -0.769,25.585 v 20.186 h -22.543 l 11.4,-20.572 C -6.789,15.943 -1.666,4.886 0,0" /></g><g
           transform="translate(35.7686,90.5283)"
           id="g432"><path
             id="path434"
             style="fill:#ee009d;fill-opacity:1;fill-rule:nonzero;stroke:none"
             d="M 0,0 C 0.512,-5.143 0.64,-16.585 0.64,-25.071 V -50.528 H 24.721 L 11.528,-24.686 C 6.533,-14.914 1.793,-5.143 0,0" /></g><g
           transform="translate(89.1758,84.8711)"
           id="g436"><path
             id="path438"
             style="fill:#ee009d;fill-opacity:1;fill-rule:nonzero;stroke:none"
             d="m 0,0 c 0,26.131 8.158,40.762 22.249,45.129 h -33.771 v -90 H 21.941 C 7.956,-40.538 0,-26.086 0,0" /></g><g
           transform="translate(121.1978,112.8994)"
           id="g440"><path
             id="path442"
             style="fill:#ee009d;fill-opacity:1;fill-rule:nonzero;stroke:none"
             d="m 0,0 c -6.789,0 -9.991,-6.042 -9.991,-27.771 0,-21.729 3.458,-28.029 10.119,-28.029 6.661,0 9.991,6.043 9.991,27.772 C 10.119,-6.3 6.661,0 0,0" /></g><g
           transform="translate(247.8354,84.8711)"
           id="g444"><path
             id="path446"
             style="fill:#ee009d;fill-opacity:1;fill-rule:nonzero;stroke:none"
             d="m 0,0 c 0,26.131 8.157,40.762 22.249,45.129 h -33.771 v -90 H 21.941 C 7.956,-40.538 0,-26.086 0,0" /></g><g
           transform="translate(201.6392,40)"
           id="g448"><path
             id="path450"
             style="fill:#ee009d;fill-opacity:1;fill-rule:nonzero;stroke:none"
             d="m 0,0 h 15.333 v 19.929 c 0,9.642 0.128,18.384 0.512,26.099 C 13.924,38.957 10.209,27.771 7.391,19.672 Z" /></g><g
           transform="translate(216.9717,130)"
           id="g452"><path
             id="path454"
             style="fill:#ee009d;fill-opacity:1;fill-rule:nonzero;stroke:none"
             d="m 0,0 h -32.791 l 7.942,-22.115 c 3.843,-10.671 7.301,-21.343 8.454,-27.643 1.281,6.3 4.611,16.715 8.582,27.772 z" /></g><g
           transform="translate(183.6694,86.0283)"
           id="g456"><path
             id="path458"
             style="fill:#ee009d;fill-opacity:1;fill-rule:nonzero;stroke:none"
             d="m 0,0 c 0.256,-7.457 0.512,-16.457 0.512,-26.1 v -19.928 h 15.332 l -7.39,19.672 C 5.635,-18.386 1.921,-7.071 0,0" /></g><g
           transform="translate(279.8569,112.8994)"
           id="g460"><path
             id="path462"
             style="fill:#ee009d;fill-opacity:1;fill-rule:nonzero;stroke:none"
             d="m 0,0 c -6.789,0 -9.991,-6.042 -9.991,-27.771 0,-21.729 3.458,-28.029 10.119,-28.029 6.661,0 9.991,6.043 9.991,27.772 C 10.119,-6.3 6.661,0 0,0" /></g><g
           transform="translate(344.4092,74.457)"
           id="g464"><path
             id="path466"
             style="fill:#ee009d;fill-opacity:1;fill-rule:nonzero;stroke:none"
             d="M 0,0 V -34.457 H 16.267 L 5.763,0 Z" /></g><g
           transform="translate(382.1953,102.6143)"
           id="g468"><path
             id="path470"
             style="fill:#ee009d;fill-opacity:1;fill-rule:nonzero;stroke:none"
             d="M 0,0 C 0,-11.7 -4.483,-19.286 -11.784,-23.657 L 1.28,-62.614 h 11.268 v 90 H -27.796 C -11.656,27.386 0,20.057 0,0" /></g><g
           transform="translate(312.0078,85.1279)"
           id="g472"><path
             id="path474"
             style="fill:#ee009d;fill-opacity:1;fill-rule:nonzero;stroke:none"
             d="m 0,0 c 0,-26.13 -8.158,-40.761 -22.321,-45.128 h 33.716 v 90 H -22.094 C -8.057,40.524 0,26.002 0,0" /></g><g
           transform="translate(352.8623,112.8994)"
           id="g476"><path
             id="path478"
             style="fill:#ee009d;fill-opacity:1;fill-rule:nonzero;stroke:none"
             d="m 0,0 h -8.453 v -21.985 h 8.069 c 6.148,0 8.454,3.599 8.454,11.057 C 8.07,-3.472 5.893,0 0,0" /></g><g
           transform="translate(501.3486,130)"
           id="g480"><path
             id="path482"
             style="fill:#ee009d;fill-opacity:1;fill-rule:nonzero;stroke:none"
             d="m 0,0 c 11.065,-3.45 15.708,-13.031 18.436,-26.613 l -20.751,-5.658 c -1.538,10.029 -2.947,15.171 -8.198,15.171 -6.917,0 -9.606,-7.328 -9.606,-27.771 0,-20.699 2.689,-28.028 9.862,-28.028 4.995,0 6.66,3.6 9.095,14.657 l 19.853,-6.815 C 15.593,-77.796 10.312,-86.699 -0.315,-89.999 H 29.651 V 0 Z" /></g><g
           transform="translate(459.0703,84.8721)"
           id="g484"><path
             id="path486"
             style="fill:#ee009d;fill-opacity:1;fill-rule:nonzero;stroke:none"
             d="M 0,0 C 0,25.784 8.12,40.7 22.187,45.128 H -10.96 V 26.742 H -43.064 V 11.313 h 20.365 V -6.943 H -43.064 V -26.486 H -10.96 V -44.871 H 21.77 C 7.31,-40.356 0,-25.041 0,0" /></g></g></g></g></svg>