<?xml version="1.0" encoding="UTF-8" standalone="no"?>
<svg
   xmlns:dc="http://purl.org/dc/elements/1.1/"
   xmlns:cc="http://creativecommons.org/ns#"
   xmlns:rdf="http://www.w3.org/1999/02/22-rdf-syntax-ns#"
   xmlns:svg="http://www.w3.org/2000/svg"
   xmlns="http://www.w3.org/2000/svg"
   viewBox="0 0 1066.6667 800"
   height="800"
   width="1066.6667"
   xml:space="preserve"
   id="svg2"
   version="1.1"><metadata
     id="metadata8"><rdf:RDF><cc:Work
         rdf:about=""><dc:format>image/svg+xml</dc:format><dc:type
           rdf:resource="http://purl.org/dc/dcmitype/StillImage" /></cc:Work></rdf:RDF></metadata><defs
     id="defs6"><clipPath
       id="clipPath18"
       clipPathUnits="userSpaceOnUse"><path
         id="path16"
         d="M 0,600 H 800 V 0 H 0 Z" /></clipPath></defs><g
     transform="matrix(1.3333333,0,0,-1.3333333,0,800)"
     id="g10"><g
       id="g12"><g
         clip-path="url(#clipPath18)"
         id="g14"><g
           transform="translate(282.5,433.812)"
           id="g20"><path
             id="path22"
             style="fill:#ff0000;fill-opacity:1;fill-rule:nonzero;stroke:none"
             d="m 0,0 h -33.464 c 14.028,-4.329 22.079,-18.788 22.079,-44.675 0,-26.015 -8.152,-40.581 -22.306,-44.929 H 0 Z" /></g><g
           transform="translate(176.1396,388.2417)"
           id="g24"><path
             id="path26"
             style="fill:#ff0000;fill-opacity:1;fill-rule:nonzero;stroke:none"
             d="M 0,0 C -0.512,4.864 -0.768,17.28 -0.768,25.473 V 45.57 H -23.297 L -11.904,25.089 C -6.784,15.873 -1.664,4.864 0,0" /></g><g
           transform="translate(153.6108,394.5142)"
           id="g28"><path
             id="path30"
             style="fill:#ff0000;fill-opacity:1;fill-rule:nonzero;stroke:none"
             d="m 0,0 c 0.512,-5.12 0.64,-16.513 0.64,-24.962 v -25.345 h 24.065 l -13.184,25.73 C 6.528,-14.849 1.792,-5.12 0,0" /></g><g
           transform="translate(206.9839,388.8813)"
           id="g32"><path
             id="path34"
             style="fill:#ff0000;fill-opacity:1;fill-rule:nonzero;stroke:none"
             d="M 0,0 C 0,26.016 8.152,40.583 22.234,44.931 H -11.515 V -44.674 H 21.928 C 7.951,-40.36 0,-25.971 0,0" /></g><g
           transform="translate(238.9854,416.7866)"
           id="g36"><path
             id="path38"
             style="fill:#ff0000;fill-opacity:1;fill-rule:nonzero;stroke:none"
             d="m 0,0 c -6.784,0 -9.984,-6.016 -9.984,-27.649 0,-21.633 3.456,-27.906 10.112,-27.906 6.656,0 9.984,6.017 9.984,27.65 C 10.112,-6.272 6.656,0 0,0" /></g><g
           transform="translate(365.542,388.8813)"
           id="g40"><path
             id="path42"
             style="fill:#30309d;fill-opacity:1;fill-rule:nonzero;stroke:none"
             d="M 0,0 C 0,26.016 8.152,40.583 22.234,44.931 H -11.515 V -44.674 H 21.927 C 7.951,-40.36 0,-25.971 0,0" /></g><g
           transform="translate(334.6982,364.0483)"
           id="g44"><path
             id="path46"
             style="fill:#30309d;fill-opacity:1;fill-rule:nonzero;stroke:none"
             d="M 0,0 C 0,9.601 0.128,18.305 0.512,25.985 -1.408,18.945 -5.12,7.809 -7.937,-0.256 l -7.386,-19.585 H 0 Z" /></g><g
           transform="translate(318.3135,384.2729)"
           id="g48"><path
             id="path50"
             style="fill:#30309d;fill-opacity:1;fill-rule:nonzero;stroke:none"
             d="m 0,0 c 1.28,6.272 4.608,16.642 8.576,27.649 l 7.809,21.89 h -32.77 L -8.448,27.521 C -4.608,16.897 -1.152,6.272 0,0" /></g><g
           transform="translate(301.417,390.0337)"
           id="g52"><path
             id="path54"
             style="fill:#30309d;fill-opacity:1;fill-rule:nonzero;stroke:none"
             d="M 0,0 C 0.256,-7.425 0.512,-16.385 0.512,-25.985 V -45.826 H 15.834 L 8.448,-26.241 C 5.632,-18.305 1.92,-7.04 0,0" /></g><g
           transform="translate(397.543,416.7866)"
           id="g56"><path
             id="path58"
             style="fill:#30309d;fill-opacity:1;fill-rule:nonzero;stroke:none"
             d="m 0,0 c -6.784,0 -9.984,-6.016 -9.984,-27.649 0,-21.633 3.456,-27.906 10.112,-27.906 6.656,0 9.984,6.017 9.984,27.65 C 10.112,-6.272 6.656,0 0,0" /></g><g
           transform="translate(462.0537,378.5132)"
           id="g60"><path
             id="path62"
             style="fill:#30309d;fill-opacity:1;fill-rule:nonzero;stroke:none"
             d="M 0,0 V -34.306 H 16.257 L 5.76,0 Z" /></g><g
           transform="translate(565.7295,415.5073)"
           id="g64"><path
             id="path66"
             style="fill:#30309d;fill-opacity:1;fill-rule:nonzero;stroke:none"
             d="m 0,0 h -32.125 v -15.361 h 20.353 v -18.177 h -20.353 v -19.457 h 32.13 z" /></g><g
           transform="translate(472.0381,433.812)"
           id="g68"><path
             id="path70"
             style="fill:#30309d;fill-opacity:1;fill-rule:nonzero;stroke:none"
             d="m 0,0 c 16.129,0 27.777,-7.297 27.777,-27.266 0,-11.648 -4.48,-19.201 -11.776,-23.552 L 29.058,-89.604 H 40.317 V 0 Z" /></g><g
           transform="translate(441.0605,433.812)"
           id="g72"><path
             id="path74"
             style="fill:#30309d;fill-opacity:1;fill-rule:nonzero;stroke:none"
             d="m 0,0 h -33.467 c 14.028,-4.329 22.079,-18.788 22.079,-44.675 0,-26.015 -8.152,-40.581 -22.306,-44.929 H 0 Z" /></g><g
           transform="translate(470.1182,394.8979)"
           id="g76"><path
             id="path78"
             style="fill:#30309d;fill-opacity:1;fill-rule:nonzero;stroke:none"
             d="m 0,0 c 6.144,0 8.448,3.584 8.448,11.009 0,7.424 -2.176,10.88 -8.064,10.88 H -8.064 V 0 Z" /></g><g
           transform="translate(648.5254,433.812)"
           id="g80"><path
             id="path82"
             style="fill:#ff6600;fill-opacity:1;fill-rule:nonzero;stroke:none"
             d="m 0,0 h -29.633 c 11.06,-3.435 15.698,-12.975 18.424,-26.497 l -20.737,-5.632 c -1.536,9.984 -2.945,15.104 -8.193,15.104 -6.912,0 -9.6,-7.296 -9.6,-27.649 0,-20.609 2.688,-27.906 9.856,-27.906 4.992,0 6.656,3.585 9.089,14.593 l 19.841,-6.784 c -3.097,-12.683 -8.374,-21.547 -18.994,-24.832 l 29.947,0 z" /></g><g
           transform="translate(576.6416,388.8818)"
           id="g84"><path
             id="path86"
             style="fill:#ff6600;fill-opacity:1;fill-rule:nonzero;stroke:none"
             d="M 0,0 C 0,25.672 8.114,40.521 22.173,44.93 H -10.953 V -44.673 H 21.756 C 7.306,-40.179 0,-24.931 0,0" /></g></g></g></g></svg>